<svg width="429" height="78" viewBox="0 0 429 78" fill="none" xmlns="http://www.w3.org/2000/svg">
<g filter="url(#filter0_dd_190_36)">
<rect x="4" y="2" width="420.542" height="70.257" rx="3.51285" fill="white" shape-rendering="crispEdges"/>
<path fill-rule="evenodd" clip-rule="evenodd" d="M56.0604 37.4877C56.0604 36.3668 55.9598 35.289 55.773 34.2543H40.8849V40.3691H49.3924C49.0259 42.3451 47.9122 44.0192 46.238 45.1402V49.1065H51.3468C54.3359 46.3545 56.0604 42.3019 56.0604 37.4877Z" fill="#4285F4"/>
<path fill-rule="evenodd" clip-rule="evenodd" d="M40.8849 52.9363C45.153 52.9363 48.7313 51.5208 51.3468 49.1065L46.238 45.1402C44.8224 46.0886 43.0117 46.6491 40.8849 46.6491C36.7676 46.6491 33.2827 43.8684 32.0397 40.132H26.7584V44.2276C29.3595 49.3939 34.7054 52.9363 40.8849 52.9363Z" fill="#34A853"/>
<path fill-rule="evenodd" clip-rule="evenodd" d="M32.0398 40.132C31.7236 39.1835 31.544 38.1704 31.544 37.1285C31.544 36.0866 31.7236 35.0735 32.0398 34.125V30.0293H26.7585C25.6879 32.1634 25.0771 34.5777 25.0771 37.1285C25.0771 39.6793 25.6879 42.0936 26.7585 44.2276L32.0398 40.132Z" fill="#FBBC05"/>
<path fill-rule="evenodd" clip-rule="evenodd" d="M40.8849 27.6079C43.2057 27.6079 45.2895 28.4054 46.9278 29.9718L51.4617 25.4379C48.7241 22.8871 45.1458 21.3207 40.8849 21.3207C34.7054 21.3207 29.3595 24.863 26.7584 30.0293L32.0397 34.125C33.2827 30.3886 36.7676 27.6079 40.8849 27.6079Z" fill="#EA4335"/>
<path d="M110.535 36.6954V43.3712C110.286 43.6994 109.898 44.0596 109.37 44.4518C108.85 44.836 108.157 45.1682 107.293 45.4484C106.428 45.7285 105.352 45.8686 104.063 45.8686C102.966 45.8686 101.962 45.6845 101.049 45.3163C100.137 44.9401 99.3483 44.3918 98.6839 43.6714C98.0275 42.951 97.5192 42.0745 97.159 41.0419C96.7988 40.0013 96.6187 38.8166 96.6187 37.4879V36.2752C96.6187 34.9544 96.7828 33.7778 97.111 32.7452C97.4472 31.7046 97.9275 30.8241 98.5518 30.1037C99.1762 29.3833 99.9286 28.839 100.809 28.4708C101.698 28.0945 102.702 27.9064 103.823 27.9064C105.256 27.9064 106.44 28.1466 107.377 28.6268C108.321 29.0991 109.05 29.7555 109.562 30.596C110.074 31.4364 110.399 32.397 110.535 33.4776H107.581C107.485 32.8692 107.297 32.3249 107.017 31.8447C106.744 31.3644 106.352 30.9882 105.84 30.716C105.336 30.4359 104.679 30.2958 103.871 30.2958C103.174 30.2958 102.562 30.4279 102.034 30.692C101.505 30.9562 101.065 31.3444 100.713 31.8567C100.369 32.369 100.109 32.9933 99.9326 33.7297C99.7565 34.4662 99.6684 35.3066 99.6684 36.2512V37.4879C99.6684 38.4484 99.7685 39.3009 99.9686 40.0453C100.177 40.7897 100.473 41.4181 100.857 41.9304C101.249 42.4427 101.726 42.8309 102.286 43.095C102.846 43.3512 103.479 43.4793 104.183 43.4793C104.871 43.4793 105.436 43.4232 105.876 43.3112C106.316 43.1911 106.664 43.051 106.921 42.8909C107.185 42.7228 107.389 42.5627 107.533 42.4107V38.9407H103.895V36.6954H110.535ZM113.032 39.2769V39.0007C113.032 38.0642 113.168 37.1957 113.44 36.3952C113.712 35.5868 114.105 34.8864 114.617 34.2941C115.137 33.6937 115.77 33.2295 116.514 32.9013C117.266 32.5651 118.115 32.397 119.059 32.397C120.012 32.397 120.86 32.5651 121.605 32.9013C122.357 33.2295 122.994 33.6937 123.514 34.2941C124.034 34.8864 124.43 35.5868 124.703 36.3952C124.975 37.1957 125.111 38.0642 125.111 39.0007V39.2769C125.111 40.2134 124.975 41.0819 124.703 41.8824C124.43 42.6828 124.034 43.3832 123.514 43.9835C122.994 44.5759 122.361 45.0401 121.617 45.3763C120.872 45.7045 120.028 45.8686 119.083 45.8686C118.131 45.8686 117.278 45.7045 116.526 45.3763C115.782 45.0401 115.149 44.5759 114.629 43.9835C114.109 43.3832 113.712 42.6828 113.44 41.8824C113.168 41.0819 113.032 40.2134 113.032 39.2769ZM115.926 39.0007V39.2769C115.926 39.8612 115.986 40.4135 116.106 40.9338C116.226 41.4541 116.414 41.9104 116.67 42.3026C116.926 42.6948 117.254 43.003 117.655 43.2271C118.055 43.4512 118.531 43.5633 119.083 43.5633C119.62 43.5633 120.084 43.4512 120.476 43.2271C120.876 43.003 121.205 42.6948 121.461 42.3026C121.717 41.9104 121.905 41.4541 122.025 40.9338C122.153 40.4135 122.217 39.8612 122.217 39.2769V39.0007C122.217 38.4244 122.153 37.8801 122.025 37.3678C121.905 36.8475 121.713 36.3872 121.449 35.987C121.193 35.5868 120.864 35.2746 120.464 35.0505C120.072 34.8184 119.604 34.7023 119.059 34.7023C118.515 34.7023 118.043 34.8184 117.643 35.0505C117.25 35.2746 116.926 35.5868 116.67 35.987C116.414 36.3872 116.226 36.8475 116.106 37.3678C115.986 37.8801 115.926 38.4244 115.926 39.0007ZM126.984 39.2769V39.0007C126.984 38.0642 127.12 37.1957 127.392 36.3952C127.664 35.5868 128.057 34.8864 128.569 34.2941C129.089 33.6937 129.721 33.2295 130.466 32.9013C131.218 32.5651 132.067 32.397 133.011 32.397C133.964 32.397 134.812 32.5651 135.557 32.9013C136.309 33.2295 136.946 33.6937 137.466 34.2941C137.986 34.8864 138.382 35.5868 138.655 36.3952C138.927 37.1957 139.063 38.0642 139.063 39.0007V39.2769C139.063 40.2134 138.927 41.0819 138.655 41.8824C138.382 42.6828 137.986 43.3832 137.466 43.9835C136.946 44.5759 136.313 45.0401 135.569 45.3763C134.824 45.7045 133.98 45.8686 133.035 45.8686C132.083 45.8686 131.23 45.7045 130.478 45.3763C129.733 45.0401 129.101 44.5759 128.581 43.9835C128.061 43.3832 127.664 42.6828 127.392 41.8824C127.12 41.0819 126.984 40.2134 126.984 39.2769ZM129.878 39.0007V39.2769C129.878 39.8612 129.938 40.4135 130.058 40.9338C130.178 41.4541 130.366 41.9104 130.622 42.3026C130.878 42.6948 131.206 43.003 131.607 43.2271C132.007 43.4512 132.483 43.5633 133.035 43.5633C133.572 43.5633 134.036 43.4512 134.428 43.2271C134.828 43.003 135.157 42.6948 135.413 42.3026C135.669 41.9104 135.857 41.4541 135.977 40.9338C136.105 40.4135 136.169 39.8612 136.169 39.2769V39.0007C136.169 38.4244 136.105 37.8801 135.977 37.3678C135.857 36.8475 135.665 36.3872 135.401 35.987C135.145 35.5868 134.816 35.2746 134.416 35.0505C134.024 34.8184 133.556 34.7023 133.011 34.7023C132.467 34.7023 131.995 34.8184 131.595 35.0505C131.202 35.2746 130.878 35.5868 130.622 35.987C130.366 36.3872 130.178 36.8475 130.058 37.3678C129.938 37.8801 129.878 38.4244 129.878 39.0007ZM149.809 32.6371H152.438V45.2683C152.438 46.4369 152.19 47.4295 151.694 48.246C151.198 49.0624 150.505 49.6828 149.617 50.107C148.728 50.5393 147.7 50.7554 146.531 50.7554C146.035 50.7554 145.482 50.6833 144.874 50.5393C144.274 50.3952 143.689 50.163 143.121 49.8429C142.561 49.5307 142.092 49.1185 141.716 48.6062L143.073 46.9012C143.537 47.4535 144.05 47.8577 144.61 48.1139C145.17 48.37 145.759 48.4981 146.375 48.4981C147.039 48.4981 147.604 48.374 148.068 48.1259C148.54 47.8858 148.904 47.5296 149.16 47.0573C149.417 46.585 149.545 46.0087 149.545 45.3283V35.5788L149.809 32.6371ZM140.984 39.2769V39.0247C140.984 38.0402 141.104 37.1437 141.344 36.3352C141.584 35.5187 141.928 34.8184 142.377 34.234C142.825 33.6417 143.369 33.1894 144.01 32.8773C144.65 32.5571 145.374 32.397 146.183 32.397C147.023 32.397 147.74 32.5491 148.332 32.8532C148.932 33.1574 149.433 33.5937 149.833 34.162C150.233 34.7223 150.545 35.3947 150.769 36.1791C151.002 36.9556 151.174 37.8201 151.286 38.7726V39.577C151.182 40.5056 151.006 41.3541 150.757 42.1225C150.509 42.8909 150.181 43.5553 149.773 44.1156C149.365 44.6759 148.86 45.1082 148.26 45.4124C147.668 45.7165 146.967 45.8686 146.159 45.8686C145.366 45.8686 144.65 45.7045 144.01 45.3763C143.377 45.0481 142.833 44.5879 142.377 43.9956C141.928 43.4032 141.584 42.7068 141.344 41.9064C141.104 41.0979 140.984 40.2214 140.984 39.2769ZM143.877 39.0247V39.2769C143.877 39.8692 143.934 40.4215 144.046 40.9338C144.166 41.4461 144.346 41.8984 144.586 42.2906C144.834 42.6748 145.146 42.979 145.522 43.2031C145.907 43.4192 146.359 43.5273 146.879 43.5273C147.56 43.5273 148.116 43.3832 148.548 43.095C148.988 42.8069 149.325 42.4187 149.557 41.9304C149.797 41.4341 149.965 40.8818 150.061 40.2734V38.1002C150.013 37.6279 149.913 37.1877 149.761 36.7795C149.617 36.3712 149.421 36.015 149.172 35.7109C148.924 35.3987 148.612 35.1585 148.236 34.9904C147.86 34.8143 147.416 34.7263 146.903 34.7263C146.383 34.7263 145.931 34.8384 145.546 35.0625C145.162 35.2866 144.846 35.5948 144.598 35.987C144.358 36.3792 144.178 36.8355 144.058 37.3558C143.938 37.8761 143.877 38.4324 143.877 39.0247ZM158.538 27.186V45.6285H155.632V27.186H158.538ZM167.435 45.8686C166.474 45.8686 165.606 45.7125 164.829 45.4003C164.061 45.0802 163.405 44.6359 162.86 44.0676C162.324 43.4993 161.912 42.8309 161.624 42.0625C161.335 41.294 161.191 40.4656 161.191 39.577V39.0968C161.191 38.0802 161.339 37.1597 161.636 36.3352C161.932 35.5107 162.344 34.8063 162.872 34.222C163.401 33.6297 164.025 33.1774 164.745 32.8652C165.466 32.5531 166.246 32.397 167.087 32.397C168.015 32.397 168.828 32.5531 169.524 32.8652C170.22 33.1774 170.797 33.6177 171.253 34.186C171.717 34.7463 172.061 35.4147 172.286 36.1911C172.518 36.9676 172.634 37.8241 172.634 38.7606V39.9973H162.596V37.9201H169.776V37.692C169.76 37.1717 169.656 36.6834 169.464 36.2272C169.28 35.7709 168.996 35.4027 168.612 35.1225C168.227 34.8424 167.715 34.7023 167.075 34.7023C166.594 34.7023 166.166 34.8063 165.79 35.0145C165.422 35.2146 165.114 35.5067 164.865 35.891C164.617 36.2752 164.425 36.7394 164.289 37.2837C164.161 37.8201 164.097 38.4244 164.097 39.0968V39.577C164.097 40.1454 164.173 40.6737 164.325 41.1619C164.485 41.6422 164.717 42.0625 165.021 42.4227C165.326 42.7829 165.694 43.067 166.126 43.2751C166.558 43.4753 167.051 43.5753 167.603 43.5753C168.299 43.5753 168.92 43.4352 169.464 43.1551C170.008 42.8749 170.481 42.4787 170.881 41.9664L172.406 43.4432C172.126 43.8515 171.761 44.2437 171.313 44.6199C170.865 44.9881 170.316 45.2883 169.668 45.5204C169.028 45.7525 168.283 45.8686 167.435 45.8686ZM189.362 31.4893H194.304V33.1368H189.362V31.4893ZM189.19 37.0712H194.255V38.7187H189.19V37.0712ZM197.673 25.3172H199.64V47.5465H197.673V25.3172ZM193.222 25.8828H195.14V46.4154H193.222V25.8828ZM188.255 28.1204H190.222C190.222 33.9483 187.886 39.1859 181.911 42.7515L180.731 41.3006C185.919 38.1531 188.255 33.7269 188.255 28.4893V28.1204ZM181.714 28.1204H189.067V29.7926L181.714 29.7926V28.1204ZM215.228 31.0712H220.245V32.7679H215.228V31.0712ZM219.605 25.3172H221.646V38.5712H219.605V25.3172ZM214.343 39.2351C218.917 39.2351 221.745 40.7843 221.745 43.3908C221.745 46.0219 218.917 47.5219 214.343 47.5219C209.745 47.5219 206.917 46.0219 206.917 43.3908C206.917 40.7843 209.745 39.2351 214.343 39.2351ZM214.343 40.8334C210.999 40.8334 208.958 41.7679 208.958 43.3908C208.958 44.9891 210.999 45.9236 214.343 45.9236C217.687 45.9236 219.728 44.9891 219.728 43.3908C219.728 41.7679 217.687 40.8334 214.343 40.8334ZM209.032 27.5549H210.704V29.3499C210.704 33.4565 208.196 36.9728 204.507 38.3499L203.45 36.7269C206.745 35.522 209.032 32.5466 209.032 29.3499V27.5549ZM209.425 27.5549H211.073V29.3499C211.073 32.227 213.237 34.981 216.458 36.1122L215.425 37.7351C211.81 36.4318 209.425 33.0876 209.425 29.3499V27.5549ZM204.065 26.9401H215.941V28.6122H204.065V26.9401ZM236.03 26.7188C240.652 26.7188 244.095 29.1778 244.095 32.8663C244.095 36.5794 240.652 39.0138 236.03 39.0138C231.407 39.0138 227.939 36.5794 227.939 32.8663C227.939 29.1778 231.407 26.7188 236.03 26.7188ZM236.03 28.3909C232.513 28.3909 229.907 30.186 229.907 32.8663C229.907 35.522 232.513 37.3417 236.03 37.3417C239.546 37.3417 242.152 35.522 242.152 32.8663C242.152 30.186 239.546 28.3909 236.03 28.3909ZM225.997 42.899H246.136V44.6203H225.997V42.899ZM248.618 43.1203H268.757V44.817H248.618V43.1203ZM257.618 38.3499H259.659V43.8334H257.618V38.3499ZM251.052 26.9647H266.273V33.7024H253.142V38.1531H251.126V32.0548H264.257V28.6122H251.052V26.9647ZM251.126 37.2925H266.79V38.9646H251.126V37.2925ZM277.362 43.1203H297.501V44.817H277.362V43.1203ZM286.362 38.3499H288.403V43.8334H286.362V38.3499ZM279.796 26.9647H295.018V33.7024H281.887V38.1531H279.87V32.0548H293.001V28.6122H279.796V26.9647ZM279.87 37.2925H295.534V38.9646H279.87V37.2925ZM302.147 27.6778L316.458 27.6778V29.3253H302.147V27.6778ZM299.983 42.6039H320.073V44.3006H299.983V42.6039ZM315.376 27.6778H317.368V29.8909C317.368 32.7434 317.368 35.9155 316.532 40.7105L314.491 40.5138C315.376 35.9646 315.376 32.645 315.376 29.8909V27.6778ZM338.759 25.3418H340.825V41.5711H338.759V25.3418ZM326.538 45.3826H341.489V47.0547H326.538V45.3826ZM326.538 39.899H328.554V45.9481H326.538V39.899ZM328.899 26.8664C332.218 26.8664 334.677 29.1286 334.677 32.3499C334.677 35.5466 332.218 37.8335 328.899 37.8335C325.579 37.8335 323.095 35.5466 323.095 32.3499C323.095 29.1286 325.579 26.8664 328.899 26.8664ZM328.899 28.6368C326.735 28.6368 325.087 30.1614 325.087 32.3499C325.087 34.5138 326.735 36.0384 328.899 36.0384C331.063 36.0384 332.71 34.5138 332.71 32.3499C332.71 30.1614 331.063 28.6368 328.899 28.6368Z" fill="black" fill-opacity="0.54"/>
</g>
<defs>
<filter id="filter0_dd_190_36" x="0.487151" y="0.243576" width="427.567" height="77.2827" filterUnits="userSpaceOnUse" color-interpolation-filters="sRGB">
<feFlood flood-opacity="0" result="BackgroundImageFix"/>
<feColorMatrix in="SourceAlpha" type="matrix" values="0 0 0 0 0 0 0 0 0 0 0 0 0 0 0 0 0 0 127 0" result="hardAlpha"/>
<feOffset dy="1.75642"/>
<feGaussianBlur stdDeviation="1.75642"/>
<feColorMatrix type="matrix" values="0 0 0 0 0 0 0 0 0 0 0 0 0 0 0 0 0 0 0.25 0"/>
<feBlend mode="normal" in2="BackgroundImageFix" result="effect1_dropShadow_190_36"/>
<feColorMatrix in="SourceAlpha" type="matrix" values="0 0 0 0 0 0 0 0 0 0 0 0 0 0 0 0 0 0 127 0" result="hardAlpha"/>
<feOffset/>
<feComposite in2="hardAlpha" operator="out"/>
<feColorMatrix type="matrix" values="0 0 0 0 0 0 0 0 0 0 0 0 0 0 0 0 0 0 0.08 0"/>
<feBlend mode="normal" in2="effect1_dropShadow_190_36" result="effect2_dropShadow_190_36"/>
<feBlend mode="normal" in="SourceGraphic" in2="effect2_dropShadow_190_36" result="shape"/>
</filter>
</defs>
</svg>
