<svg width="59" height="72" viewBox="0 0 59 72" fill="none" xmlns="http://www.w3.org/2000/svg">
<path d="M16.3457 13.912L14.6797 18.808L15.5977 19.046L19.7457 6.942H31.5097V33.496H22.3297V24.554L19.6097 33.496H13.4897L10.7697 24.554V33.496H1.48767V6.942H14.1697L16.3457 13.912Z" fill="white"/>
<path d="M3.828 37.942H28.172V46.612H21.78V64.53H10.22V46.612H3.828V37.942Z" fill="white"/>
<path d="M51.6994 33.496H34.2914V6.942H51.4614C54.8954 6.942 57.9214 8.88 57.9214 13.402C57.9214 16.666 56.4934 18.638 54.5214 19.76C56.6974 20.712 58.2954 23.262 58.2954 26.662C58.2954 30.98 55.2014 33.496 51.6994 33.496ZM42.3494 13.266L41.8734 14.082C43.4374 14.694 46.5654 15.17 48.7754 15.17V14.252C46.5654 14.252 43.6754 13.674 42.3494 13.266ZM42.0094 24.826L41.5334 25.642C43.0974 26.254 46.9054 26.73 49.1154 26.73V25.812C46.9054 25.812 43.3354 25.234 42.0094 24.826Z" fill="white"/>
<path d="M51.6564 37.942V64.53H40.3344V37.942H51.6564Z" fill="white"/>
</svg>
