<svg width="421" height="71" viewBox="0 0 421 71" fill="none" xmlns="http://www.w3.org/2000/svg">
<rect y="0.751145" width="421" height="70" rx="9.36759" fill="#FEE500"/>
<g clip-path="url(#clip0_190_134)">
<path opacity="0.902" fill-rule="evenodd" clip-rule="evenodd" d="M45.2767 23.1736C37.9232 23.1736 31.2253 29.0845 31.2253 34.0853C31.2253 37.8323 33.6578 41.1375 37.3627 43.1016L35.8045 48.8252C35.6656 49.3326 36.2417 49.7354 36.6835 49.4434L43.5172 44.908C44.0933 44.9642 44.6803 44.997 45.2767 44.997C53.0362 44.997 59.3281 40.1118 59.3281 34.0853C59.3281 29.0845 53.0362 23.1736 45.2767 23.1736Z" fill="black"/>
</g>
<path d="M92.5721 28.6799H94.4058C94.4058 34.5885 92.4136 40.0217 85.0788 43.6665L84.0601 42.2176C90.5347 39.0256 92.5721 34.4527 92.5721 28.8836V28.6799ZM85.1694 28.6799H93.6814V30.1966H85.1694V28.6799ZM92.2778 33.7509V35.1997L84.4449 35.9694L84.1506 34.2942L92.2778 33.7509ZM97.711 26.5292H99.6126V47.0169H97.711V26.5292ZM99.092 34.8375H102.873V36.3995H99.092V34.8375ZM113.398 28.6799H115.231C115.231 34.5885 113.239 40.0217 105.904 43.6665L104.886 42.2176C111.36 39.0256 113.398 34.4527 113.398 28.8836V28.6799ZM105.995 28.6799H114.507V30.1966H105.995V28.6799ZM113.103 33.7509V35.1997L105.27 35.9694L104.976 34.2942L113.103 33.7509ZM118.537 26.5292H120.438V47.0169H118.537V26.5292ZM119.917 34.8375H123.698V36.3995H119.917V34.8375ZM133.816 38.1201H135.695V43.2137H133.816V38.1201ZM134.766 27.8875C139.09 27.8875 142.192 29.9929 142.192 33.2528C142.192 36.5127 139.09 38.6181 134.766 38.6181C130.443 38.6181 127.318 36.5127 127.318 33.2528C127.318 29.9929 130.443 27.8875 134.766 27.8875ZM134.766 29.3817C131.507 29.3817 129.13 30.9211 129.13 33.2528C129.13 35.5846 131.507 37.124 134.766 37.124C138.004 37.124 140.381 35.5846 140.381 33.2528C140.381 30.9211 138.004 29.3817 134.766 29.3817ZM125.53 42.8515H144.071V44.4135H125.53V42.8515ZM151.418 42.942H169.959V44.5041H151.418V42.942ZM159.704 38.5502H161.583V43.5985H159.704V38.5502ZM153.659 28.0686H167.673V34.2715H155.584V38.3691H153.727V32.7548H165.816V29.5854H153.659V28.0686ZM153.727 37.5767H168.148V39.1162H153.727V37.5767ZM174.236 28.7251H187.411V30.2419H174.236V28.7251ZM172.244 42.4666H190.739V44.0287H172.244V42.4666ZM186.415 28.7251H188.249V30.7626C188.249 33.3886 188.249 36.309 187.479 40.7235L185.6 40.5424C186.415 36.3543 186.415 33.2981 186.415 30.7626V28.7251ZM207.943 26.5745L209.844 26.5745V41.5158H207.943V26.5745ZM196.691 45.0248H210.455V46.5642H196.691V45.0248ZM196.691 39.9764H198.548V45.5454H196.691V39.9764ZM198.865 27.9781C201.921 27.9781 204.185 30.0608 204.185 33.0264C204.185 35.9694 201.921 38.0748 198.865 38.0748C195.808 38.0748 193.522 35.9694 193.522 33.0264C193.522 30.0608 195.808 27.9781 198.865 27.9781ZM198.865 29.608C196.872 29.608 195.356 31.0116 195.356 33.0264C195.356 35.0186 196.872 36.4222 198.865 36.4222C200.857 36.4222 202.374 35.0186 202.374 33.0264C202.374 31.0116 200.857 29.608 198.865 29.608Z" fill="black"/>
<defs>
<clipPath id="clip0_190_134">
<rect width="28.1028" height="28.1028" fill="white" transform="translate(31.2253 21.6998)"/>
</clipPath>
</defs>
</svg>
